# xmcd CD database file
#
# Track frame offsets:
#	150
#	13988
#	31473
#	42545
#	54239
#	64735
#	76463
#	82607
#	93067
#	105129
#	124376
#	138956
#
# Disc length: 2153 seconds
#
# Revision: 0
# Processed by: cddbd v1.5.2PL0 Copyright (c) Steve Scherf et al.
# Submitted via: CDex 1.51
#
DISCID=8d08670c
DTITLE=Eric Clapton - Eric Clapton
DYEAR=1997
DGENRE=Blues
TTITLE0=Draggin`My Tail
TTITLE1=Big Boss Man
TTITLE2=Snake Drive
TTITLE3=Got to Hurry
TTITLE4=West Coast Idea
TTITLE5=Pounds and Stomps
TTITLE6=Choker
TTITLE7=I wish you would
TTITLE8=Got love if you want it
TTITLE9=Take it easy baby
TTITLE10=Out on the watercoast
TTITLE11=Five long years
EXTD=YEAR: 1997
EXTT0=
EXTT1=
EXTT2=
EXTT3=
EXTT4=
EXTT5=
EXTT6=
EXTT7=
EXTT8=
EXTT9=
EXTT10=
EXTT11=
PLAYORDER=
